# xmcd
#
# Track frame offsets:
#	150
#	19420
#	36412
#	48540
#	62000
#	79680
#	94785
#	112542
#	131912
#	146765
#	173355
#
# Disc length: 2537 seconds
#
# Revision: 1
# Processed by: cddbd v1.5.1PL0 Copyright (c) Steve Scherf et al.
# Submitted via: CDex 1.50Beta5
#
DISCID=8f09e70b
DTITLE=かぐや姫 - おんすてーじ
DYEAR=1994
DGENRE=
TTITLE0=ヒトリキリ
TTITLE1=田中君じゃないか
TTITLE2=きっぷ
TTITLE3=約束です
TTITLE4=この秋に
TTITLE5=あの人の手紙
TTITLE6=少女はいつも
TTITLE7=今はちがう季節
TTITLE8=好きだった人
TTITLE9=そんな時
TTITLE10=おもかげ色の空
EXTD=
EXTT0=
EXTT1=
EXTT2=
EXTT3=
EXTT4=
EXTT5=
EXTT6=
EXTT7=
EXTT8=
EXTT9=
EXTT10=
PLAYORDER=
